# 3ds Max Wavefront OBJ Exporter v0.97b - (c)2007 guruware
# File Created: 23.04.2020 11:18:38

mtllib parpaing.mtl

#
# object parpaing
#

v  -149.1514 0.0000 55.9183
v  -149.1514 0.0000 42.7945
v  -136.9868 0.0000 42.7945
v  -136.9868 0.0000 55.9183
v  -56.2858 0.0000 42.7945
v  -56.2858 0.0000 55.9183
v  -44.8029 0.0000 42.7945
v  -44.8029 0.0000 55.9183
v  46.7276 0.0000 42.7945
v  46.7276 0.0000 55.9183
v  58.7038 0.0000 42.7945
v  58.7038 0.0000 55.9183
v  137.0966 0.0000 42.7945
v  137.0966 0.0000 55.9183
v  149.1514 0.0000 42.7945
v  149.1514 0.0000 55.9183
v  -149.1514 0.0000 6.9990
v  -136.9868 0.0000 6.9990
v  -56.2858 0.0000 6.9990
v  -44.8029 0.0000 6.9990
v  46.7276 0.0000 6.9990
v  58.7038 0.0000 6.9990
v  137.0966 0.0000 6.9990
v  149.1514 0.0000 6.9990
v  -149.1514 0.0000 -8.3949
v  -136.9868 0.0000 -8.3949
v  -56.2858 0.0000 -8.3949
v  -44.8029 0.0000 -8.3949
v  46.7276 0.0000 -8.3949
v  58.7038 0.0000 -8.3949
v  137.0966 0.0000 -8.3949
v  149.1514 0.0000 -8.3949
v  -149.1514 0.0000 -43.1972
v  -136.9867 0.0000 -43.1972
v  -56.2858 0.0000 -43.1972
v  -44.8029 0.0000 -43.1972
v  46.7276 0.0000 -43.1972
v  58.7038 0.0000 -43.1972
v  137.0966 0.0000 -43.1972
v  149.1514 0.0000 -43.1972
v  -149.1514 0.0000 -55.9183
v  -136.9868 0.0000 -55.9183
v  -56.2858 0.0000 -55.9183
v  -44.8029 0.0000 -55.9183
v  46.7276 0.0000 -55.9183
v  58.7038 0.0000 -55.9183
v  137.0966 0.0000 -55.9183
v  149.1514 0.0000 -55.9183
v  -149.1514 121.2613 55.9183
v  -136.9868 121.2613 55.9183
v  -136.9868 121.2613 42.7945
v  -149.1514 121.2613 42.7945
v  -56.2858 121.2613 55.9183
v  -56.2858 121.2613 42.7945
v  -44.8029 121.2613 55.9183
v  -44.8029 121.2613 42.7945
v  46.7276 121.2613 55.9183
v  46.7276 121.2613 42.7945
v  58.7038 121.2613 55.9183
v  58.7038 121.2613 42.7945
v  137.0966 121.2613 55.9183
v  137.0966 121.2613 42.7945
v  149.1514 121.2613 55.9183
v  149.1514 121.2613 42.7945
v  -136.9868 121.2613 6.9990
v  -149.1514 121.2613 6.9990
v  -44.8029 121.2613 6.9990
v  -56.2858 121.2613 6.9990
v  58.7038 121.2613 6.9990
v  46.7276 121.2613 6.9990
v  149.1514 121.2613 6.9990
v  137.0966 121.2613 6.9990
v  -136.9868 121.2613 -8.3949
v  -149.1514 121.2613 -8.3949
v  -56.2858 121.2613 -8.3949
v  -44.8029 121.2613 -8.3949
v  46.7276 121.2613 -8.3949
v  58.7038 121.2613 -8.3949
v  137.0966 121.2613 -8.3949
v  149.1514 121.2613 -8.3949
v  -136.9867 121.2613 -43.1972
v  -149.1514 121.2613 -43.1972
v  -44.8029 121.2613 -43.1972
v  -56.2858 121.2613 -43.1972
v  58.7038 121.2613 -43.1972
v  46.7276 121.2613 -43.1972
v  149.1514 121.2613 -43.1972
v  137.0966 121.2613 -43.1972
v  -136.9868 121.2613 -55.9183
v  -149.1514 121.2613 -55.9183
v  -56.2858 121.2613 -55.9183
v  -44.8029 121.2613 -55.9183
v  46.7276 121.2613 -55.9183
v  58.7038 121.2613 -55.9183
v  137.0966 121.2613 -55.9183
v  149.1514 121.2613 -55.9183
v  163.8495 0.0000 55.9183
v  163.8495 0.0000 42.7945
v  163.8495 121.2613 42.7945
v  163.8495 121.2613 55.9183
v  163.8495 0.0000 -43.1972
v  163.8495 0.0000 -55.9183
v  163.8495 121.2613 -55.9183
v  163.8495 121.2613 -43.1972
v  -165.1437 0.0000 -55.9183
v  -165.1436 0.0000 -43.1972
v  -165.1436 121.2613 -43.1972
v  -165.1437 121.2613 -55.9183
v  -165.1437 0.0000 42.7945
v  -165.1437 0.0000 55.9183
v  -165.1437 121.2613 55.9183
v  -165.1437 121.2613 42.7945
# 112 vertices

vn 0.0000 -0.7071 0.7071
vn -0.3015 -0.9045 -0.3015
vn 0.3015 -0.9045 -0.3015
vn -0.7071 -0.7071 -0.0000
vn 0.3015 -0.9045 0.3015
vn -0.3015 -0.9045 0.3015
vn 0.7071 -0.7071 -0.0000
vn 0.0000 -0.7071 -0.7071
vn 0.0000 0.7071 0.7071
vn 0.3015 0.9045 -0.3015
vn -0.3015 0.9045 -0.3015
vn 0.3015 0.9045 0.3015
vn -0.7071 0.7071 -0.0000
vn -0.3015 0.9045 0.3015
vn 0.7071 0.7071 -0.0000
vn 0.0000 0.7071 -0.7071
vn 0.5774 -0.5774 0.5773
vn 0.5774 -0.5774 -0.5774
vn 0.5774 0.5774 -0.5774
vn 0.5774 0.5774 0.5773
vn 0.5773 -0.5773 0.5774
vn 0.5774 -0.5774 -0.5773
vn 0.5774 0.5774 -0.5773
vn 0.5773 0.5773 0.5774
vn -0.5774 -0.5774 -0.5773
vn -0.5773 -0.5773 0.5774
vn -0.5773 0.5773 0.5774
vn -0.5774 0.5774 -0.5773
vn -0.5774 -0.5774 -0.5774
vn -0.5774 -0.5774 0.5773
vn -0.5774 0.5774 0.5773
vn -0.5774 0.5774 -0.5774
# 32 vertex normals

vt 0.0222 0.9966 0.0000
vt 0.0222 0.9775 0.0000
vt 0.0387 0.9775 0.0000
vt 0.0387 0.9966 0.0000
vt 0.1484 0.9775 0.0000
vt 0.1484 0.9966 0.0000
vt 0.1640 0.9775 0.0000
vt 0.1640 0.9966 0.0000
vt 0.2883 0.9775 0.0000
vt 0.2883 0.9966 0.0000
vt 0.3046 0.9775 0.0000
vt 0.3046 0.9966 0.0000
vt 0.4110 0.9775 0.0000
vt 0.4110 0.9966 0.0000
vt 0.4274 0.9775 0.0000
vt 0.4274 0.9966 0.0000
vt 0.0222 0.9253 0.0000
vt 0.0387 0.9253 0.0000
vt 0.1484 0.9253 0.0000
vt 0.1640 0.9253 0.0000
vt 0.2883 0.9253 0.0000
vt 0.3046 0.9253 0.0000
vt 0.4110 0.9253 0.0000
vt 0.4274 0.9253 0.0000
vt 0.0222 0.9029 0.0000
vt 0.0387 0.9029 0.0000
vt 0.1484 0.9029 0.0000
vt 0.1640 0.9029 0.0000
vt 0.2883 0.9029 0.0000
vt 0.3046 0.9029 0.0000
vt 0.4110 0.9029 0.0000
vt 0.4274 0.9029 0.0000
vt 0.0222 0.8521 0.0000
vt 0.0387 0.8521 0.0000
vt 0.1484 0.8521 0.0000
vt 0.1640 0.8521 0.0000
vt 0.2883 0.8521 0.0000
vt 0.3046 0.8521 0.0000
vt 0.4110 0.8521 0.0000
vt 0.4274 0.8521 0.0000
vt 0.0222 0.8336 0.0000
vt 0.0387 0.8336 0.0000
vt 0.1484 0.8336 0.0000
vt 0.1640 0.8336 0.0000
vt 0.2883 0.8336 0.0000
vt 0.3046 0.8336 0.0000
vt 0.4110 0.8336 0.0000
vt 0.4274 0.8336 0.0000
vt 0.1500 0.1824 0.0000
vt 0.1568 0.1830 0.0000
vt 0.1578 0.2000 0.0000
vt 0.1414 0.1997 0.0000
vt 0.2564 0.1522 0.0000
vt 0.2598 0.1722 0.0000
vt 0.2689 0.1509 0.0000
vt 0.2722 0.1712 0.0000
vt 0.3902 0.1385 0.0000
vt 0.3909 0.1590 0.0000
vt 0.4033 0.1372 0.0000
vt 0.4039 0.1574 0.0000
vt 0.5037 0.1473 0.0000
vt 0.5061 0.1640 0.0000
vt 0.5102 0.1455 0.0000
vt 0.5218 0.1602 0.0000
vt 0.1516 0.2427 0.0000
vt 0.1360 0.2445 0.0000
vt 0.2756 0.2263 0.0000
vt 0.2604 0.2276 0.0000
vt 0.4146 0.2116 0.0000
vt 0.3988 0.2136 0.0000
vt 0.5365 0.2028 0.0000
vt 0.5210 0.2043 0.0000
vt 0.1535 0.2592 0.0000
vt 0.1379 0.2608 0.0000
vt 0.2630 0.2517 0.0000
vt 0.2781 0.2498 0.0000
vt 0.4013 0.2370 0.0000
vt 0.4171 0.2356 0.0000
vt 0.5227 0.2208 0.0000
vt 0.5381 0.2191 0.0000
vt 0.1681 0.2984 0.0000
vt 0.1521 0.3020 0.0000
vt 0.2860 0.3030 0.0000
vt 0.2736 0.3045 0.0000
vt 0.4179 0.2894 0.0000
vt 0.4048 0.2905 0.0000
vt 0.5326 0.2623 0.0000
vt 0.5165 0.2619 0.0000
vt 0.1706 0.3147 0.0000
vt 0.1639 0.3166 0.0000
vt 0.2743 0.3242 0.0000
vt 0.2869 0.3230 0.0000
vt 0.4081 0.3101 0.0000
vt 0.4213 0.3087 0.0000
vt 0.5176 0.2781 0.0000
vt 0.5244 0.2786 0.0000
vt 0.0659 0.0753 0.0000
vt 0.0983 0.0603 0.0000
vt 0.2184 0.0204 0.0000
vt 0.2470 0.0156 0.0000
vt 0.3847 0.0016 0.0000
vt 0.4146 0.0005 0.0000
vt 0.5372 0.0157 0.0000
vt 0.5719 0.0242 0.0000
vt 0.6064 0.0432 0.0000
vt 0.6325 0.0716 0.0000
vt 0.5264 0.1518 0.0000
vt 0.5196 0.1434 0.0000
vt 0.6496 0.1072 0.0000
vt 0.6693 0.1763 0.0000
vt 0.6736 0.2180 0.0000
vt 0.6685 0.2882 0.0000
vt 0.6590 0.3266 0.0000
vt 0.6395 0.3591 0.0000
vt 0.5340 0.2787 0.0000
vt 0.5388 0.2697 0.0000
vt 0.6095 0.3847 0.0000
vt 0.5773 0.4001 0.0000
vt 0.4605 0.4402 0.0000
vt 0.4310 0.4452 0.0000
vt 0.2934 0.4599 0.0000
vt 0.2644 0.4611 0.0000
vt 0.1388 0.4469 0.0000
vt 0.1040 0.4390 0.0000
vt 0.0677 0.4199 0.0000
vt 0.0419 0.3923 0.0000
vt 0.1473 0.3115 0.0000
vt 0.1534 0.3190 0.0000
vt 0.0242 0.3552 0.0000
vt 0.0049 0.2877 0.0000
vt 0.0005 0.2462 0.0000
vt 0.0052 0.1746 0.0000
vt 0.0147 0.1346 0.0000
vt 0.0344 0.1016 0.0000
vt 0.1393 0.1824 0.0000
vt 0.1346 0.1915 0.0000
vt 0.7040 0.6646 0.0000
vt 0.6266 0.7423 0.0000
vt 0.5303 0.6463 0.0000
vt 0.6076 0.5687 0.0000
vt 0.7408 0.6276 0.0000
vt 0.6445 0.5317 0.0000
vt 0.8182 0.5500 0.0000
vt 0.7218 0.4540 0.0000
vt 0.5898 0.7792 0.0000
vt 0.4934 0.6833 0.0000
vt 0.0848 0.8082 0.0000
vt 0.0358 0.8214 0.0000
vt 0.0005 0.6901 0.0000
vt 0.0495 0.6769 0.0000
vt 0.3455 0.7381 0.0000
vt 0.2397 0.7666 0.0000
vt 0.2044 0.6353 0.0000
vt 0.3102 0.6068 0.0000
vt 0.1907 0.7798 0.0000
vt 0.1554 0.6485 0.0000
vt 0.5457 0.6247 0.0000
vt 0.4580 0.7128 0.0000
vt 0.3616 0.6169 0.0000
vt 0.4494 0.5288 0.0000
vt 0.5815 0.5888 0.0000
vt 0.4852 0.4928 0.0000
vt 0.6692 0.5006 0.0000
vt 0.5729 0.4047 0.0000
vt 0.4222 0.7488 0.0000
vt 0.3258 0.6529 0.0000
vt 0.9189 0.8522 0.0000
vt 0.8831 0.8881 0.0000
vt 0.7868 0.7922 0.0000
vt 0.8226 0.7562 0.0000
vt 0.8080 0.9635 0.0000
vt 0.7116 0.8676 0.0000
vt 0.7722 0.9995 0.0000
vt 0.6758 0.9035 0.0000
vt 0.9941 0.7767 0.0000
vt 0.8977 0.6808 0.0000
vt 0.7435 0.8275 0.0000
vt 0.7067 0.8645 0.0000
vt 0.6104 0.7685 0.0000
vt 0.6472 0.7316 0.0000
vt 0.6315 0.9399 0.0000
vt 0.5352 0.8440 0.0000
vt 0.5947 0.9769 0.0000
vt 0.4984 0.8809 0.0000
vt 0.8187 0.7521 0.0000
vt 0.7223 0.6561 0.0000
vt 0.6512 0.3657 0.0000
vt 0.6839 0.2458 0.0000
vt 0.8151 0.2816 0.0000
vt 0.7824 0.4015 0.0000
vt 0.6977 0.1954 0.0000
vt 0.7304 0.0755 0.0000
vt 0.8616 0.1113 0.0000
vt 0.8288 0.2312 0.0000
vt 0.7442 0.0251 0.0000
vt 0.8753 0.0610 0.0000
vt 0.0005 0.8521 0.0000
vt 0.0005 0.8336 0.0000
vt 0.0005 0.9966 0.0000
vt 0.0005 0.9775 0.0000
vt 0.4474 0.9775 0.0000
vt 0.4474 0.9966 0.0000
vt 0.4474 0.8336 0.0000
vt 0.4474 0.8521 0.0000
# 204 texture coords

o parpaing
g parpaing
usemtl wire_028089177
s 1
f 1/1/1 2/2/2 3/3/3 4/4/1 
f 4/4/1 3/3/3 5/5/2 6/6/1 
f 6/6/1 5/5/2 7/7/3 8/8/1 
f 8/8/1 7/7/3 9/9/2 10/10/1 
f 10/10/1 9/9/2 11/11/3 12/12/1 
f 12/12/1 11/11/3 13/13/2 14/14/1 
f 14/14/1 13/13/2 15/15/3 16/16/1 
f 2/2/2 17/17/4 18/18/5 3/3/3 
f 5/5/2 19/19/6 20/20/5 7/7/3 
f 9/9/2 21/21/6 22/22/5 11/11/3 
f 13/13/2 23/23/6 24/24/7 15/15/3 
f 17/17/4 25/25/4 26/26/3 18/18/5 
f 18/18/5 26/26/3 27/27/2 19/19/6 
f 19/19/6 27/27/2 28/28/3 20/20/5 
f 20/20/5 28/28/3 29/29/2 21/21/6 
f 21/21/6 29/29/2 30/30/3 22/22/5 
f 22/22/5 30/30/3 31/31/2 23/23/6 
f 23/23/6 31/31/2 32/32/7 24/24/7 
f 25/25/4 33/33/6 34/34/5 26/26/3 
f 27/27/2 35/35/6 36/36/5 28/28/3 
f 29/29/2 37/37/6 38/38/5 30/30/3 
f 31/31/2 39/39/6 40/40/5 32/32/7 
f 33/33/6 41/41/8 42/42/8 34/34/5 
f 34/34/5 42/42/8 43/43/8 35/35/6 
f 35/35/6 43/43/8 44/44/8 36/36/5 
f 36/36/5 44/44/8 45/45/8 37/37/6 
f 37/37/6 45/45/8 46/46/8 38/38/5 
f 38/38/5 46/46/8 47/47/8 39/39/6 
f 39/39/6 47/47/8 48/48/8 40/40/5 
f 49/49/9 50/50/9 51/51/10 52/52/11 
f 50/50/9 53/53/9 54/54/11 51/51/10 
f 53/53/9 55/55/9 56/56/10 54/54/11 
f 55/55/9 57/57/9 58/58/11 56/56/10 
f 57/57/9 59/59/9 60/60/10 58/58/11 
f 59/59/9 61/61/9 62/62/11 60/60/10 
f 61/61/9 63/63/9 64/64/10 62/62/11 
f 52/52/11 51/51/10 65/65/12 66/66/13 
f 54/54/11 56/56/10 67/67/12 68/68/14 
f 58/58/11 60/60/10 69/69/12 70/70/14 
f 62/62/11 64/64/10 71/71/15 72/72/14 
f 66/66/13 65/65/12 73/73/10 74/74/13 
f 65/65/12 68/68/14 75/75/11 73/73/10 
f 68/68/14 67/67/12 76/76/10 75/75/11 
f 67/67/12 70/70/14 77/77/11 76/76/10 
f 70/70/14 69/69/12 78/78/10 77/77/11 
f 69/69/12 72/72/14 79/79/11 78/78/10 
f 72/72/14 71/71/15 80/80/15 79/79/11 
f 74/74/13 73/73/10 81/81/12 82/82/14 
f 75/75/11 76/76/10 83/83/12 84/84/14 
f 77/77/11 78/78/10 85/85/12 86/86/14 
f 79/79/11 80/80/15 87/87/12 88/88/14 
f 82/82/14 81/81/12 89/89/16 90/90/16 
f 81/81/12 84/84/14 91/91/16 89/89/16 
f 84/84/14 83/83/12 92/92/16 91/91/16 
f 83/83/12 86/86/14 93/93/16 92/92/16 
f 86/86/14 85/85/12 94/94/16 93/93/16 
f 85/85/12 88/88/14 95/95/16 94/94/16 
f 88/88/14 87/87/12 96/96/16 95/95/16 
s 2
f 1/97/1 4/98/1 50/50/9 49/49/9 
f 4/98/1 6/99/1 53/53/9 50/50/9 
f 6/99/1 8/100/1 55/55/9 53/53/9 
f 8/100/1 10/101/1 57/57/9 55/55/9 
f 10/101/1 12/102/1 59/59/9 57/57/9 
f 12/102/1 14/103/1 61/61/9 59/59/9 
f 14/103/1 16/104/1 63/63/9 61/61/9 
s 4
f 97/105/17 98/106/18 99/107/19 100/108/20 
s 2
f 15/109/3 24/110/7 71/71/15 64/64/10 
f 24/110/7 32/111/7 80/80/15 71/71/15 
f 32/111/7 40/112/5 87/87/12 80/80/15 
f 101/113/21 102/114/22 103/115/23 104/116/24 
s 4
f 48/117/8 47/118/8 95/95/16 96/96/16 
f 47/118/8 46/119/8 94/94/16 95/95/16 
f 46/119/8 45/120/8 93/93/16 94/94/16 
f 45/120/8 44/121/8 92/92/16 93/93/16 
f 44/121/8 43/122/8 91/91/16 92/92/16 
f 43/122/8 42/123/8 89/89/16 91/91/16 
f 42/123/8 41/124/8 90/90/16 89/89/16 
s 2
f 105/125/25 106/126/26 107/127/27 108/128/28 
f 33/129/6 25/130/4 74/74/13 82/82/14 
f 25/130/4 17/131/4 66/66/13 74/74/13 
f 17/131/4 2/132/2 52/52/11 66/66/13 
s 4
f 109/133/29 110/134/30 111/135/31 112/136/32 
s 2
f 68/137/14 65/138/12 18/139/5 19/140/6 
s 4
f 54/141/11 68/137/14 19/140/6 5/142/2 
s 2
f 51/143/10 54/141/11 5/142/2 3/144/3 
s 4
f 65/138/12 51/145/10 3/146/3 18/139/5 
s 2
f 81/147/12 73/148/10 26/149/3 34/150/5 
s 4
f 73/151/10 75/152/11 27/153/2 26/154/3 
s 2
f 75/152/11 84/155/14 35/156/6 27/153/2 
s 4
f 84/155/14 81/147/12 34/150/5 35/156/6 
s 2
f 86/157/14 83/158/12 36/159/5 37/160/6 
s 4
f 77/161/11 86/157/14 37/160/6 29/162/2 
s 2
f 76/163/10 77/161/11 29/162/2 28/164/3 
s 4
f 83/158/12 76/165/10 28/166/3 36/159/5 
s 2
f 79/167/11 88/168/14 39/169/6 31/170/2 
s 4
f 88/168/14 85/171/12 38/172/5 39/169/6 
s 2
f 85/171/12 78/173/10 30/174/3 38/172/5 
s 4
f 78/175/10 79/167/11 31/170/2 30/176/3 
s 2
f 62/177/11 72/178/14 23/179/6 13/180/2 
s 4
f 72/178/14 69/181/12 22/182/5 23/179/6 
s 2
f 69/181/12 60/183/10 11/184/3 22/182/5 
s 4
f 60/185/10 62/177/11 13/180/2 11/186/3 
s 2
f 56/187/10 58/188/11 9/189/2 7/190/3 
f 70/191/14 67/192/12 20/193/5 21/194/6 
s 4
f 67/192/12 56/195/10 7/196/3 20/193/5 
f 58/188/11 70/191/14 21/194/6 9/189/2 
s 1
f 41/41/8 33/33/6 106/197/26 105/198/25 
s 4
f 33/129/6 82/82/14 107/127/27 106/126/26 
s 1
f 82/82/14 90/90/16 108/128/28 107/127/27 
s 4
f 90/90/16 41/124/8 105/125/25 108/128/28 
s 1
f 2/2/2 1/1/1 110/199/30 109/200/29 
s 2
f 1/97/1 49/49/9 111/135/31 110/134/30 
s 1
f 49/49/9 52/52/11 112/136/32 111/135/31 
s 8
f 52/52/11 2/132/2 109/133/29 112/136/32 
s 1
f 16/16/1 15/15/3 98/201/18 97/202/17 
s 8
f 15/109/3 64/64/10 99/107/19 98/106/18 
s 1
f 64/64/10 63/63/9 100/108/20 99/107/19 
s 2
f 63/63/9 16/104/1 97/105/17 100/108/20 
s 1
f 40/40/5 48/48/8 102/203/22 101/204/21 
s 4
f 48/117/8 96/96/16 103/115/23 102/114/22 
s 1
f 96/96/16 87/87/12 104/116/24 103/115/23 
s 4
f 87/87/12 40/112/5 101/113/21 104/116/24 
# 122 polygons

