# 3ds Max Wavefront OBJ Exporter v0.97b - (c)2007 guruware
# File Created: 23.04.2020 11:11:56

mtllib Ruelle.mtl

#
# object Ruelle
#

v  -308.5840 0.0000 -308.0258
v  -308.5840 0.0000 2409.2285
v  284.0994 0.0000 2409.2285
v  284.0994 0.0000 -308.0258
v  -397.9837 0.0000 864.3309
v  -208.0739 0.0000 864.3309
v  -208.0739 846.1738 864.3309
v  -397.9837 846.1738 864.3309
v  -208.0739 0.0000 -226.0956
v  -208.0739 846.1738 -226.0956
v  -397.9837 0.0000 -226.0956
v  -397.9837 846.1738 -226.0956
v  -435.0161 0.0000 1954.7574
v  -171.0415 0.0000 1954.7574
v  -171.0415 846.1738 1954.7574
v  -435.0161 846.1738 1954.7574
v  -171.0415 0.0000 864.3309
v  -171.0415 846.1738 864.3309
v  -435.0161 0.0000 864.3309
v  -435.0161 846.1738 864.3309
v  680.3572 0.0000 2519.5078
v  680.3572 0.0000 2255.5332
v  680.3572 964.6381 2255.5332
v  680.3572 964.6381 2519.5078
v  -573.6333 0.0000 2255.5332
v  -573.6333 964.6381 2255.5332
v  -573.6333 0.0000 2519.5078
v  -573.6333 964.6381 2519.5078
v  570.7901 0.0000 922.9659
v  306.8155 0.0000 922.9659
v  306.8155 846.1738 922.9659
v  570.7901 846.1738 922.9659
v  306.8154 0.0000 2013.3925
v  306.8154 846.1738 2013.3925
v  570.7900 0.0000 2013.3925
v  570.7900 846.1738 2013.3925
v  196.4755 0.0000 1119.5989
v  386.3853 0.0000 1119.5989
v  386.3853 846.1738 1119.5989
v  196.4755 846.1738 1119.5989
v  386.3853 0.0000 590.2656
v  196.4755 0.0000 590.2656
v  196.4755 846.1738 590.2656
v  386.3853 846.1738 590.2656
v  650.3599 0.0000 -331.0245
v  386.3853 0.0000 -331.0245
v  386.3853 964.6381 -331.0245
v  650.3599 964.6381 -331.0245
v  386.3854 0.0000 922.9659
v  386.3854 964.6381 922.9659
v  650.3600 0.0000 922.9659
v  650.3600 964.6381 922.9659
v  196.4755 0.0000 -45.2493
v  386.3853 0.0000 -45.2493
v  386.3853 846.1738 -45.2493
v  196.4755 846.1738 -45.2493
v  386.3853 0.0000 -574.5825
v  196.4755 0.0000 -574.5825
v  196.4755 846.1738 -574.5825
v  386.3853 846.1738 -574.5825
v  237.7614 0.0000 590.2655
v  237.7614 0.0000 -45.2494
v  242.7614 0.0000 -45.2494
v  242.7614 0.0000 590.2655
v  237.7614 300.0000 590.2655
v  242.7614 300.0000 590.2655
v  242.7614 300.0000 -45.2494
v  237.7614 300.0000 -45.2494
v  205.1168 0.0000 1755.1136
v  205.1168 0.0000 1119.5988
v  210.1168 0.0000 1119.5988
v  210.1168 0.0000 1755.1136
v  205.1168 300.0000 1755.1136
v  210.1168 300.0000 1755.1136
v  210.1168 300.0000 1119.5988
v  205.1168 300.0000 1119.5988
# 76 vertices

vn 0.0000 1.0000 -0.0000
vn 0.0000 0.0000 1.0000
vn 0.7071 0.0000 0.7071
vn 0.7071 0.0000 -0.7071
vn 0.0000 0.0000 -1.0000
vn 1.0000 0.0000 -0.0000
vn -0.7071 0.0000 -0.7071
vn -1.0000 0.0000 -0.0000
vn -0.7071 0.0000 0.7071
vn -0.5774 -0.5774 0.5774
vn -0.5774 -0.5774 -0.5774
vn 0.0000 -0.7071 -0.7071
vn 0.0000 -0.7071 0.7071
vn -0.5774 0.5774 0.5774
vn 0.0000 0.7071 0.7071
vn 0.0000 0.7071 -0.7071
vn -0.5774 0.5774 -0.5774
# 17 vertex normals

vt 0.0100 0.9900 0.0000
vt 0.0100 0.0100 0.0000
vt 0.2238 0.0100 0.0000
vt 0.2238 0.9900 0.0000
vt 0.8679 0.0100 0.0000
vt 0.9900 0.0100 0.0000
vt 0.9900 0.5541 0.0000
vt 0.8679 0.5541 0.0000
vt 0.7112 0.0100 0.0000
vt 0.7112 0.5541 0.0000
vt 0.0100 0.5541 0.0000
vt 0.7292 0.0100 0.0000
vt 0.8513 0.0100 0.0000
vt 0.8513 0.5541 0.0000
vt 0.7292 0.5541 0.0000
vt 0.6649 0.0100 0.0000
vt 0.8193 0.0100 0.0000
vt 0.8193 0.5050 0.0000
vt 0.6649 0.5050 0.0000
vt 0.6479 0.0100 0.0000
vt 0.6479 0.5050 0.0000
vt 0.0100 0.5050 0.0000
vt 0.8356 0.0100 0.0000
vt 0.9900 0.5050 0.0000
vt 0.8356 0.5050 0.0000
vt 0.8493 0.0100 0.0000
vt 0.9900 0.5242 0.0000
vt 0.8493 0.5242 0.0000
vt 0.6784 0.0100 0.0000
vt 0.6784 0.5242 0.0000
vt 0.0100 0.5242 0.0000
vt 0.6928 0.0100 0.0000
vt 0.8335 0.0100 0.0000
vt 0.8335 0.5242 0.0000
vt 0.6928 0.5242 0.0000
vt 0.7922 0.0100 0.0000
vt 0.9900 0.8911 0.0000
vt 0.7922 0.8911 0.0000
vt 0.5781 0.0100 0.0000
vt 0.7758 0.0100 0.0000
vt 0.7758 0.8911 0.0000
vt 0.5781 0.8911 0.0000
vt 0.5612 0.0100 0.0000
vt 0.5612 0.8911 0.0000
vt 0.0100 0.8911 0.0000
vt 0.9696 0.0168 0.0000
vt 0.9696 0.9539 0.0000
vt 0.9622 0.9539 0.0000
vt 0.9622 0.0168 0.0000
vt 0.9826 0.0168 0.0000
vt 0.9900 0.0168 0.0000
vt 0.9900 0.9539 0.0000
vt 0.9826 0.9539 0.0000
vt 0.0304 0.4657 0.0000
vt 0.0378 0.4657 0.0000
vt 0.0378 0.9081 0.0000
vt 0.0304 0.9081 0.0000
vt 0.0100 0.4657 0.0000
vt 0.0174 0.4657 0.0000
vt 0.0174 0.9081 0.0000
vt 0.0100 0.9081 0.0000
vt 0.9471 0.0100 0.0000
vt 0.9471 0.4524 0.0000
vt 0.0100 0.4524 0.0000
# 64 texture coords

o Ruelle
g Ruelle
usemtl M_Sol
f 1/1/1 2/2/1 3/3/1 4/4/1 
usemtl M_Bat_1
f 5/5/2 6/6/3 7/7/3 8/8/2 
f 6/2/3 9/9/4 10/10/4 7/11/3 
f 9/12/4 11/13/5 12/14/5 10/15/4 
usemtl M_Bat_2
f 13/16/2 14/17/3 15/18/3 16/19/2 
f 14/2/3 17/20/4 18/21/4 15/22/3 
f 17/23/4 19/6/5 20/24/5 18/25/4 
usemtl M_Bat_4
f 21/26/6 22/6/4 23/27/4 24/28/6 
f 22/2/4 25/29/7 26/30/7 23/31/4 
f 25/32/7 27/33/8 28/34/8 26/35/7 
usemtl M_Bat_2
f 29/16/5 30/17/7 31/18/7 32/19/5 
f 30/2/7 33/20/9 34/21/9 31/22/7 
f 33/23/9 35/6/2 36/24/2 34/25/9 
usemtl M_Bat_3
f 37/36/9 38/6/2 39/37/2 40/38/9 
f 41/39/5 42/40/7 43/41/7 44/42/5 
f 42/2/7 37/43/9 40/44/9 43/45/7 
usemtl M_Bat_4
f 45/26/5 46/6/7 47/27/7 48/28/5 
f 46/2/7 49/29/9 50/30/9 47/31/7 
f 49/32/9 51/33/2 52/34/2 50/35/9 
usemtl M_Bat_3
f 53/36/9 54/6/2 55/37/2 56/38/9 
f 57/39/5 58/40/7 59/41/7 60/42/5 
f 58/2/7 53/43/9 56/44/9 59/45/7 
usemtl M_Palissade
f 61/46/10 62/47/11 63/48/12 64/49/13 
f 65/50/14 66/51/15 67/52/16 68/53/17 
f 61/54/10 64/55/13 66/56/15 65/57/14 
f 63/58/12 62/59/11 68/60/17 67/61/16 
f 62/2/11 61/62/10 65/63/14 68/64/17 
f 69/46/10 70/47/11 71/48/12 72/49/13 
f 73/50/14 74/51/15 75/52/16 76/53/17 
f 69/54/10 72/55/13 74/56/15 73/57/14 
f 71/58/12 70/59/11 76/60/17 75/61/16 
f 70/2/11 69/62/10 73/63/14 76/64/17 
# 32 polygons

